<svg width="290" height="360" viewBox="0 0 290 360" fill="none" xmlns="http://www.w3.org/2000/svg">
<path d="M62.0687 0L82.3055 37.2656H41.8319L62.0687 0Z" fill="black"/>
<path d="M62.0687 74.5312L82.3055 37.2656H41.8319L62.0687 74.5312Z" fill="black"/>
<path d="M23.3674 0L43.6042 37.2656H3.13064L23.3674 0Z" fill="black"/>
<path d="M23.3674 74.5312L43.6042 37.2656H3.13064L23.3674 74.5312Z" fill="black"/>
<path d="M266.633 0L286.869 37.2656H246.396L266.633 0Z" fill="black"/>
<path d="M266.633 74.5312L286.869 37.2656H246.396L266.633 74.5312Z" fill="black"/>
<path d="M227.931 0L248.168 37.2656H207.695L227.931 0Z" fill="black"/>
<path d="M227.931 74.5312L248.168 37.2656H207.695L227.931 74.5312Z" fill="black"/>
<path d="M62.0687 285.469L82.3055 322.734H41.8319L62.0687 285.469Z" fill="black"/>
<path d="M62.0687 360L82.3055 322.734H41.8319L62.0687 360Z" fill="black"/>
<path d="M23.3674 285.469L43.6042 322.734H3.13064L23.3674 285.469Z" fill="black"/>
<path d="M23.3674 360L43.6042 322.734H3.13064L23.3674 360Z" fill="black"/>
<path d="M266.633 285.469L286.869 322.734H246.396L266.633 285.469Z" fill="black"/>
<path d="M266.633 360L286.869 322.734H246.396L266.633 360Z" fill="black"/>
<path d="M227.931 285.469L248.168 322.734H207.695L227.931 285.469Z" fill="black"/>
<path d="M227.931 360L248.168 322.734H207.695L227.931 360Z" fill="black"/>
</svg>
