<?xml version="1.0" encoding="UTF-8"?>
<svg xmlns="http://www.w3.org/2000/svg" xmlns:xlink="http://www.w3.org/1999/xlink" width="3000" height="3000" viewBox="0 0 3000 3000">
<path fill-rule="nonzero" fill="rgb(0%, 0%, 0%)" fill-opacity="1" d="M 114.335938 2946.417969 C 86.804688 2917.027344 49.816406 2878.097656 32.148438 2859.910156 L 0.0195312 2826.839844 L 1.003906 2751.601562 L 1.992188 2676.363281 L 139.824219 2822.710938 C 215.636719 2903.203125 283.886719 2975.988281 291.5 2984.457031 L 305.339844 2999.855469 L 164.402344 2999.855469 Z M 533 2990.058594 C 537.828125 2984.667969 580.210938 2939.429688 627.175781 2889.523438 C 674.144531 2839.617188 746.195312 2763.023438 787.289062 2719.316406 C 833.625 2670.03125 861.050781 2638.175781 859.488281 2635.453125 C 856.78125 2630.730469 840.21875 2613.046875 583.910156 2341.175781 C 491.511719 2243.167969 415.496094 2162.980469 414.984375 2162.980469 C 414.011719 2162.980469 174.03125 2417.050781 67.191406 2531.1875 C 33.316406 2567.375 4.378906 2597.148438 2.886719 2597.351562 C 1.390625 2597.554688 0.175781 2564.707031 0.1875 2524.359375 L 0.1875 2450.996094 L 204.730469 2233.625 C 317.230469 2114.070312 411.691406 2016.253906 414.648438 2016.253906 C 417.609375 2016.253906 520.566406 2123.039062 643.445312 2253.550781 C 870.429688 2494.632812 930.789062 2557.867188 933.921875 2557.867188 C 937.460938 2557.867188 1083.378906 2410.035156 1083.378906 2406.449219 C 1083.378906 2404.40625 1056.871094 2377.726562 1024.480469 2347.164062 C 992.082031 2316.597656 869.8125 2201.390625 752.765625 2091.144531 C 635.71875 1980.898438 539.949219 1889.519531 539.949219 1888.089844 C 539.949219 1886.648438 629.941406 1800.78125 739.925781 1697.269531 C 1020.160156 1433.53125 1083.378906 1373.191406 1083.378906 1369.46875 C 1083.378906 1366.320312 936.40625 1217.421875 933.300781 1217.421875 C 931.507812 1217.421875 886.203125 1265.210938 614.761719 1553.460938 C 505.46875 1669.511719 415.484375 1764.46875 414.800781 1764.46875 C 414.117188 1764.46875 334.972656 1680.921875 238.933594 1578.800781 C 142.890625 1476.679688 49.84375 1378.25 32.15625 1360.058594 L 0 1326.988281 L 0.984375 1251.808594 L 1.972656 1176.621094 L 199.417969 1386.089844 C 308.011719 1501.308594 399.898438 1599.421875 403.609375 1604.121094 C 407.320312 1608.828125 412.273438 1612.191406 414.613281 1611.589844 C 418.457031 1610.601562 501.039062 1523.699219 749.605469 1259.078125 C 796.398438 1209.269531 841.089844 1161.75 848.921875 1153.488281 L 863.160156 1138.46875 L 837.539062 1110.839844 C 807.960938 1078.941406 478.261719 728.898438 440.230469 689.019531 L 414.769531 662.320312 L 271.769531 813.960938 C 193.121094 897.371094 101.054688 995.199219 67.183594 1031.371094 C 33.308594 1067.539062 4.371094 1097.300781 2.875 1097.5 C 1.382812 1097.699219 0.160156 1065.070312 0.160156 1024.988281 L 0.160156 952.109375 L 20.671875 929.890625 C 137.683594 803.128906 411.917969 514.589844 415.382812 514.589844 C 417.835938 514.589844 425.269531 520.839844 431.898438 528.480469 C 442.742188 540.96875 534.304688 638.269531 829.609375 951.078125 C 882.3125 1006.910156 927.621094 1053.929688 930.292969 1055.558594 C 933.738281 1057.679688 956.6875 1037.011719 1009.269531 984.429688 C 1050.039062 943.660156 1083.390625 908.671875 1083.390625 906.671875 C 1083.390625 903.160156 1012.320312 835.480469 689.402344 531.449219 C 607.210938 454.070312 539.960938 389.550781 539.960938 388.089844 C 539.960938 386.621094 629.015625 301.589844 737.859375 199.121094 C 846.703125 96.660156 938.78125 9.941406 942.476562 6.421875 C 948.535156 0.628906 956.5625 0.101562 1023.898438 0.980469 L 1098.609375 1.960938 L 1012.199219 83.28125 C 746.601562 333.238281 691.90625 385.671875 692.867188 389.339844 C 693.855469 393.089844 767.855469 463.488281 1052.339844 731.320312 C 1111.980469 787.460938 1162.539062 833.398438 1164.699219 833.398438 C 1168.328125 833.398438 1218.621094 787.519531 1293.511719 715.890625 C 1310.449219 699.691406 1365.058594 648.230469 1414.878906 601.539062 C 1464.691406 554.839844 1519.308594 503.449219 1536.238281 487.339844 C 1553.179688 471.230469 1582.738281 443.460938 1601.929688 425.628906 C 1621.128906 407.808594 1637.019531 391.449219 1637.261719 389.28125 C 1637.488281 387.109375 1614.5 363.46875 1586.171875 336.75 C 1557.839844 310.03125 1503.601562 258.820312 1465.640625 222.949219 C 1427.679688 187.089844 1359.351562 122.691406 1313.789062 79.851562 L 1230.949219 1.960938 L 1381.269531 0 L 1410.75 28.429688 C 1426.960938 44.058594 1467.140625 82.160156 1500.011719 113.109375 C 1746.898438 345.449219 1788.140625 384.570312 1789.058594 387.28125 C 1789.621094 388.960938 1695.890625 479.019531 1580.761719 587.410156 C 1265.359375 884.371094 1246.410156 902.460938 1246.410156 906.691406 C 1246.410156 908.859375 1279.859375 944.039062 1320.738281 984.890625 L 1395.058594 1059.171875 L 1404.570312 1050.441406 C 1412.71875 1042.960938 1720.550781 717.320312 1864 564.441406 C 1889.839844 536.898438 1912.96875 514.820312 1915.390625 515.378906 C 1919.460938 516.320312 1965.820312 565.070312 2309.128906 929.410156 C 2374.851562 999.140625 2430.050781 1056.769531 2431.800781 1057.460938 C 2435.660156 1058.980469 2583.238281 911.910156 2583.238281 906.550781 C 2583.238281 904.460938 2487.46875 812.570312 2370.429688 702.339844 C 2043.011719 393.96875 2039.808594 390.929688 2039.808594 388.171875 C 2039.808594 386.738281 2131.910156 298.820312 2244.480469 192.78125 L 2449.160156 0 L 2598.378906 1.960938 L 2486.660156 107.019531 C 2425.210938 164.808594 2360.261719 226.058594 2342.320312 243.140625 C 2324.390625 260.210938 2283.21875 299.140625 2250.839844 329.628906 C 2218.46875 360.121094 2191.96875 386.441406 2191.96875 388.121094 C 2191.96875 392 2212.261719 411.421875 2458.019531 642.691406 C 2569.480469 747.578125 2662.398438 833.398438 2664.519531 833.398438 C 2668.128906 833.398438 2705.609375 798.679688 2916 600.398438 L 2999.859375 521.371094 L 2999.320312 664.941406 L 2874.25 782.398438 C 2805.460938 847 2748.328125 902.070312 2747.289062 904.769531 C 2746.140625 907.761719 2774.828125 939.070312 2820.550781 984.75 L 2895.691406 1059.828125 L 2999.859375 951.378906 L 2999.859375 1102.550781 L 2983.269531 1120.289062 L 2966.679688 1138.019531 L 2980.328125 1153.269531 C 2987.839844 1161.648438 2995.308594 1169.058594 2996.921875 1169.71875 C 2998.539062 1170.378906 2999.800781 1205.429688 2999.730469 1247.609375 L 2999.601562 1324.289062 L 2947.769531 1270.109375 L 2895.949219 1215.929688 L 2820.871094 1291.121094 C 2779.570312 1332.480469 2746.308594 1368.300781 2746.929688 1370.730469 C 2747.558594 1373.160156 2794.53125 1419.011719 2851.320312 1472.609375 C 2908.101562 1526.210938 2964.761719 1579.710938 2977.210938 1591.488281 L 2999.851562 1612.910156 L 2999.851562 1754.519531 L 2982.640625 1738.960938 C 2973.179688 1730.398438 2949.101562 1707.769531 2929.128906 1688.679688 C 2802.898438 1567.980469 2668.820312 1443.851562 2664.660156 1443.851562 C 2657.898438 1443.851562 2191.378906 1884.109375 2192.699219 1889.238281 C 2193.589844 1892.699219 2321.660156 2014.25 2614.019531 2289.125 C 2639.921875 2313.480469 2663.191406 2332.964844 2665.71875 2332.421875 C 2668.25 2331.882812 2743.039062 2262.96875 2831.921875 2179.28125 C 2920.800781 2095.59375 2994.941406 2026.578125 2996.679688 2025.914062 C 2998.429688 2025.25 2999.730469 2056.136719 2999.589844 2094.75 L 2999.320312 2164.789062 L 2874.230469 2282.296875 C 2805.429688 2346.925781 2748.308594 2401.964844 2747.289062 2404.609375 C 2746.199219 2407.457031 2776.058594 2440.023438 2820.570312 2484.546875 L 2895.691406 2559.679688 L 2999.859375 2451.234375 L 2999.859375 2602.402344 L 2983.121094 2620.292969 L 2966.378906 2638.1875 L 2980.398438 2653.214844 C 2988.109375 2661.480469 2995.640625 2668.8125 2997.140625 2669.511719 C 2998.628906 2670.207031 2999.800781 2705.285156 2999.730469 2747.460938 L 2999.589844 2824.144531 L 2895.921875 2715.761719 L 2821.089844 2790.835938 C 2779.929688 2832.128906 2746.410156 2867.929688 2746.601562 2870.390625 C 2746.789062 2872.851562 2776.320312 2902.582031 2812.21875 2936.453125 L 2877.480469 2998.042969 L 2803.058594 2999.019531 L 2728.628906 3000 L 2698.96875 2971.851562 C 2682.660156 2956.367188 2667.269531 2943.699219 2664.761719 2943.699219 C 2662.261719 2943.699219 2646.769531 2956.335938 2630.351562 2971.777344 L 2600.480469 2999.855469 L 2525.730469 2999.734375 L 2450.988281 2999.609375 L 2517.25 2935.425781 C 2553.691406 2900.125 2583.441406 2870.074219 2583.359375 2868.640625 C 2583.21875 2867.210938 2549.628906 2832.445312 2508.570312 2791.382812 L 2433.929688 2716.722656 L 2424.929688 2725.148438 C 2419.980469 2729.785156 2359.46875 2793.488281 2290.460938 2866.714844 L 2164.980469 2999.855469 L 2024.039062 2999.855469 L 2032.820312 2990.058594 C 2037.660156 2984.667969 2080.039062 2939.429688 2127.019531 2889.523438 C 2327.289062 2676.785156 2358.609375 2642.753906 2358.609375 2637.882812 C 2358.609375 2635.0625 2349.199219 2622.832031 2337.710938 2610.707031 C 2326.210938 2598.582031 2237 2503.886719 2139.46875 2400.277344 C 2041.929688 2296.664062 1951.371094 2200.699219 1938.21875 2187.027344 L 1914.328125 2162.167969 L 1856.601562 2223.410156 C 1824.851562 2257.09375 1724.699219 2363.347656 1634.039062 2459.53125 C 1543.378906 2555.714844 1468.769531 2635.589844 1468.25 2637.027344 C 1467.730469 2638.464844 1540.28125 2717.199219 1629.46875 2811.992188 C 1718.660156 2906.785156 1794.738281 2987.835938 1798.539062 2992.101562 L 1805.429688 2999.855469 L 1664.199219 2999.855469 L 1531.109375 2858.5625 C 1457.910156 2780.855469 1397.25 2717.273438 1396.308594 2717.273438 C 1391.660156 2717.273438 1246.089844 2866.769531 1247.070312 2870.539062 C 1247.699219 2872.945312 1277.339844 2902.617188 1312.960938 2936.476562 L 1377.710938 2998.042969 L 1303.25 2999.023438 L 1228.78125 3000 L 1199.191406 2971.851562 C 1182.921875 2956.367188 1168.140625 2943.160156 1166.339844 2942.496094 C 1164.550781 2941.832031 1148.871094 2954.464844 1131.488281 2970.570312 L 1099.910156 2999.855469 L 951.132812 2999.746094 L 983.792969 2968.097656 C 1001.761719 2950.691406 1031.511719 2921.976562 1049.910156 2904.289062 C 1068.308594 2886.605469 1083.371094 2870.726562 1083.371094 2869.007812 C 1083.371094 2867.289062 1049.808594 2832.269531 1008.800781 2791.1875 L 934.226562 2716.492188 L 923.355469 2726.839844 C 917.375 2732.535156 856.839844 2796.289062 788.832031 2868.519531 L 665.183594 2999.847656 L 524.1875 2999.847656 L 532.972656 2990.050781 Z M 1247.140625 2717.582031 C 1318.980469 2645.90625 1322.851562 2641.363281 1318.628906 2633.488281 C 1311.710938 2620.554688 1170.929688 2481.789062 1164.730469 2481.789062 C 1158.859375 2481.789062 1007.320312 2631.324219 1007.320312 2637.109375 C 1007.320312 2647.066406 1155.519531 2793.351562 1165.609375 2793.351562 C 1168.679688 2793.351562 1205.359375 2759.257812 1247.140625 2717.582031 Z M 2709.660156 2755.3125 C 2730.800781 2735.386719 2764.769531 2701.40625 2785.160156 2679.796875 C 2818.539062 2644.421875 2821.828125 2639.742188 2818.128906 2632.832031 C 2811.378906 2620.207031 2670.550781 2481.789062 2664.460938 2481.789062 C 2658.75 2481.789062 2507.171875 2631.191406 2507.171875 2636.820312 C 2507.171875 2647.78125 2656.699219 2794.410156 2666 2792.574219 C 2668.878906 2792.003906 2688.53125 2775.238281 2709.660156 2755.3125 Z M 1431.628906 2522.546875 C 1462.480469 2491.152344 1597.519531 2348.039062 1833.398438 2096.742188 C 1876.019531 2051.34375 1912.910156 2014.660156 1915.398438 2015.226562 C 1917.878906 2015.792969 1952.878906 2051.304688 1993.179688 2094.144531 C 2033.480469 2136.984375 2091.929688 2198.9375 2123.070312 2231.8125 C 2297.558594 2416.015625 2415.578125 2541.5625 2421.429688 2549.199219 C 2425.078125 2553.96875 2429.789062 2557.867188 2431.878906 2557.867188 C 2436.859375 2557.867188 2583.25 2411.355469 2583.25 2406.371094 C 2583.25 2404.273438 2460.980469 2287.390625 2311.539062 2146.628906 C 2162.089844 2005.871094 2039.820312 1889.519531 2039.820312 1888.070312 C 2039.820312 1886.621094 2129.839844 1800.75 2239.851562 1697.25 C 2551.171875 1404.359375 2583.25 1373.679688 2583.25 1368.921875 C 2583.25 1366.011719 2436.039062 1217.421875 2433.140625 1217.421875 C 2432.308594 1217.421875 2366.699219 1286.289062 2287.351562 1370.449219 C 2208 1454.621094 2114.539062 1553.691406 2079.671875 1590.609375 C 2044.808594 1627.539062 1993.5 1681.921875 1965.671875 1711.460938 L 1915.070312 1765.191406 L 1885.960938 1734.941406 C 1869.949219 1718.308594 1753.621094 1595.058594 1627.441406 1461.058594 C 1501.269531 1327.058594 1397.261719 1217.421875 1396.308594 1217.421875 C 1393.199219 1217.421875 1246.421875 1365.988281 1246.421875 1369.128906 C 1246.421875 1374.320312 1267.71875 1394.601562 1714.769531 1815.171875 C 1756.070312 1854.011719 1789.851562 1886.820312 1789.851562 1888.070312 C 1789.851562 1890.730469 1805.621094 1875.730469 1491.820312 2171.308594 C 1356.851562 2298.429688 1246.421875 2404.1875 1246.421875 2406.320312 C 1246.421875 2410.039062 1391.160156 2557.542969 1395.03125 2557.761719 C 1396.058594 2557.816406 1412.53125 2541.972656 1431.628906 2522.546875 Z M 1317.75 2192.867188 C 1399.769531 2115.65625 1505.171875 2016.617188 1551.980469 1972.78125 C 1598.78125 1928.941406 1637.210938 1891.261719 1637.378906 1889.03125 C 1637.550781 1886.808594 1557.398438 1809.371094 1459.261719 1716.96875 C 1289.308594 1556.941406 1252.871094 1522.558594 1193.210938 1465.980469 C 1178.890625 1452.390625 1165.558594 1441.859375 1163.589844 1442.570312 C 1160.570312 1443.648438 959.875 1631.398438 844.414062 1741.148438 C 825.417969 1759.210938 783.316406 1799.050781 750.863281 1829.671875 C 718.40625 1860.289062 692.324219 1887.179688 692.898438 1889.421875 C 693.472656 1891.660156 752.632812 1948.730469 824.363281 2016.257812 C 896.09375 2083.777344 980.054688 2162.886719 1010.941406 2192.046875 C 1141.449219 2315.285156 1161.019531 2333.253906 1164.71875 2333.253906 C 1166.859375 2333.253906 1235.730469 2270.078125 1317.75 2192.867188 Z M 1037.640625 2040.972656 C 968.394531 1975.570312 903.832031 1914.921875 894.171875 1906.199219 C 884.507812 1897.46875 877.074219 1889.101562 877.652344 1887.589844 C 878.226562 1886.089844 943.003906 1824.398438 1021.589844 1750.519531 L 1164.46875 1616.179688 L 1182.878906 1633.269531 C 1193 1642.660156 1254.71875 1700.691406 1320.039062 1762.230469 C 1385.359375 1823.761719 1442.390625 1877.058594 1446.769531 1880.671875 L 1454.730469 1887.230469 L 1443.871094 1897.820312 C 1420.398438 1920.691406 1175.320312 2150.585938 1169.609375 2155.089844 C 1164.230469 2159.328125 1149.03125 2146.183594 1037.640625 2040.972656 Z M 1264.539062 1924.148438 L 1302.578125 1887.769531 L 1280.210938 1866.878906 C 1267.921875 1855.390625 1237.398438 1826.671875 1212.398438 1803.070312 C 1187.398438 1779.46875 1165.421875 1760.730469 1163.550781 1761.410156 C 1158.359375 1763.308594 1029.058594 1884.898438 1029.058594 1887.878906 C 1029.058594 1889.320312 1059.480469 1919.121094 1096.679688 1954.121094 L 1164.300781 2017.757812 L 1195.390625 1989.140625 C 1212.5 1973.410156 1243.609375 1944.160156 1264.539062 1924.148438 Z M 2065.539062 1454.710938 C 2348.960938 1154.011719 2358.828125 1143.28125 2357.820312 1137.019531 C 2356.96875 1131.75 2231.800781 996.480469 2110.421875 869.628906 C 2090.398438 848.710938 2038.429688 793.691406 1994.941406 747.359375 C 1951.449219 701.03125 1915.339844 663.128906 1914.691406 663.128906 C 1914.058594 663.128906 1886.929688 691.359375 1854.410156 725.859375 C 1568.390625 1029.320312 1472.539062 1131.550781 1470.339844 1135.46875 C 1468.699219 1138.410156 1496.578125 1170.679688 1548.210938 1225.601562 C 1592.441406 1272.660156 1692.210938 1378.859375 1769.921875 1461.609375 C 1847.628906 1544.351562 1912.898438 1611.699219 1914.96875 1611.28125 C 1917.03125 1610.851562 1984.789062 1540.398438 2065.539062 1454.710938 Z M 1778.980469 1283.828125 C 1706.25 1206.789062 1646.308594 1142 1645.78125 1139.839844 C 1645.25 1137.679688 1663.898438 1115.53125 1687.230469 1090.621094 C 1825.078125 943.410156 1911.488281 853.328125 1914.839844 853.328125 C 1919.058594 853.328125 2180.601562 1129.351562 2183.789062 1137.179688 C 2184.890625 1139.871094 2184.289062 1143.128906 2182.441406 1144.429688 C 2178.140625 1147.441406 1947.730469 1391.53125 1931.75 1409.988281 C 1925.128906 1417.660156 1917.789062 1423.910156 1915.449219 1423.910156 C 1913.121094 1423.898438 1851.699219 1360.859375 1778.96875 1283.828125 Z M 2016.910156 1167.609375 L 2044.339844 1137.710938 L 1997.699219 1088.429688 C 1972.050781 1061.320312 1944.011719 1031.160156 1935.378906 1021.410156 C 1926.761719 1011.648438 1917.730469 1003.679688 1915.308594 1003.679688 C 1911.460938 1003.679688 1789.550781 1130.660156 1787.089844 1137.230469 C 1786.570312 1138.621094 1815.070312 1170.53125 1850.421875 1208.140625 L 1914.691406 1276.519531 L 1952.089844 1237.011719 C 1972.660156 1215.28125 2001.828125 1184.050781 2016.910156 1167.609375 Z M 1207.941406 1257.269531 C 1228.109375 1238.339844 1262.089844 1204.308594 1283.441406 1181.640625 C 1318.089844 1144.871094 1321.839844 1139.621094 1318.25 1132.921875 C 1311.539062 1120.378906 1170.871094 981.941406 1164.839844 981.941406 C 1158.898438 981.941406 1007.320312 1131.398438 1007.320312 1137.261719 C 1007.320312 1147.890625 1156.828125 1294.558594 1165.851562 1292.769531 C 1168.839844 1292.179688 1187.78125 1276.199219 1207.941406 1257.269531 Z M 2747.109375 1217.609375 C 2818.109375 1146.441406 2822.539062 1141.210938 2818.449219 1133.558594 C 2811.441406 1120.46875 2670.890625 981.941406 2664.609375 981.941406 C 2658.75 981.941406 2507.171875 1131.109375 2507.171875 1136.859375 C 2507.171875 1147.28125 2655.160156 1293.5 2665.699219 1293.5 C 2668.839844 1293.5 2705.46875 1259.351562 2747.109375 1217.609375 Z M 1896.78125 2908.554688 C 1887.109375 2897.996094 1865.988281 2875.5 1849.828125 2858.5625 C 1717.289062 2719.617188 1644.5 2640.347656 1646 2636.589844 C 1649.089844 2628.882812 1910.480469 2353.179688 1914.691406 2353.179688 C 1919.039062 2353.179688 2180.519531 2628.96875 2183.789062 2636.988281 C 2184.949219 2639.863281 2172.460938 2655.382812 2153.160156 2675.027344 C 2135.230469 2693.28125 2078.539062 2753.046875 2027.179688 2807.84375 C 1975.808594 2862.640625 1929.410156 2912.035156 1924.058594 2917.609375 L 1914.339844 2927.75 Z M 1984.691406 2702.03125 C 2016.011719 2668.476562 2041.628906 2639.632812 2041.628906 2637.9375 C 2041.628906 2633.203125 1919.050781 2503.527344 1914.570312 2503.527344 C 1910 2503.527344 1788.039062 2633.390625 1788.039062 2638.253906 C 1788.039062 2640.042969 1816.378906 2671.652344 1851.019531 2708.496094 C 1911.671875 2773.015625 1914.25 2775.253906 1920.859375 2769.265625 C 1924.640625 2765.84375 1953.371094 2735.589844 1984.691406 2702.03125 Z M 394.433594 2906.117188 C 385.808594 2896.40625 326.027344 2832.757812 261.585938 2764.679688 C 197.144531 2696.597656 145.234375 2638.925781 146.230469 2636.515625 C 147.921875 2632.414062 209.699219 2566.152344 351.28125 2416.578125 C 384.285156 2381.707031 412.9375 2353.179688 414.949219 2353.179688 C 419.796875 2353.179688 684.71875 2633.171875 684.828125 2638.410156 C 684.828125 2639.871094 629.863281 2699.214844 562.613281 2770.285156 C 495.363281 2841.359375 435.742188 2904.96875 430.117188 2911.640625 C 424.492188 2918.316406 417.6875 2923.773438 415 2923.773438 C 412.308594 2923.773438 403.054688 2915.828125 394.433594 2906.117188 Z M 484.835938 2702.03125 C 516.15625 2668.476562 541.78125 2639.632812 541.78125 2637.9375 C 541.78125 2633.222656 419.203125 2503.527344 414.746094 2503.527344 C 411.175781 2503.527344 289.421875 2630.992188 287.234375 2637.019531 C 286.714844 2638.457031 315.019531 2670.230469 350.132812 2707.628906 C 411.898438 2773.410156 414.207031 2775.421875 420.933594 2769.335938 C 424.757812 2765.875 453.515625 2735.589844 484.835938 2702.03125 Z M 0.394531 2089.617188 L 0.613281 2019.878906 L 68.898438 1956.480469 C 106.453125 1921.609375 137.324219 1891.210938 137.503906 1888.941406 C 137.683594 1886.660156 106.855469 1855.789062 68.996094 1820.339844 L 0.160156 1755.871094 L 0.160156 1685.460938 C 0.160156 1617.039062 0.351562 1615.191406 7.019531 1620.019531 C 18.296875 1628.191406 289.988281 1885.46875 289.988281 1887.96875 C 289.988281 1889.238281 264.3125 1914.449219 232.929688 1944 C 170.40625 2002.855469 66.378906 2101.09375 28.863281 2136.714844 C 15.746094 2149.167969 3.921875 2159.355469 2.589844 2159.355469 C 1.261719 2159.355469 0.261719 2127.972656 0.386719 2089.617188 Z M 2537.449219 2040.710938 C 2468.46875 1975.449219 2404.019531 1914.941406 2394.230469 1906.238281 C 2384.429688 1897.539062 2376.898438 1889.179688 2377.488281 1887.660156 C 2378.078125 1886.140625 2442.859375 1824.441406 2521.449219 1750.550781 L 2664.339844 1616.199219 L 2682.71875 1633.28125 C 2692.828125 1642.671875 2754.46875 1700.628906 2819.699219 1762.078125 C 2884.921875 1823.53125 2941.960938 1876.828125 2946.441406 1880.519531 L 2954.589844 1887.230469 L 2943.71875 1897.800781 C 2937.738281 1903.609375 2888.828125 1949.640625 2835.039062 2000.085938 C 2781.230469 2050.535156 2721.550781 2107.007812 2702.398438 2125.582031 C 2683.25 2144.160156 2666.53125 2159.355469 2665.230469 2159.355469 C 2663.949219 2159.355469 2606.441406 2105.964844 2537.449219 2040.710938 Z M 2748.988281 1938.828125 C 2777.390625 1912 2800.621094 1889.089844 2800.621094 1887.910156 C 2800.621094 1883.769531 2669.21875 1762.660156 2664.71875 1762.660156 C 2659.820312 1762.660156 2528.910156 1883.449219 2528.910156 1887.96875 C 2528.910156 1889.449219 2559.351562 1919.28125 2596.558594 1954.25 L 2664.210938 2017.832031 L 2680.789062 2002.722656 C 2689.910156 1994.410156 2720.601562 1965.660156 2748.988281 1938.828125 Z M 394.488281 1406.46875 C 385.832031 1396.871094 326.179688 1333.378906 261.917969 1265.378906 C 197.65625 1197.378906 145.082031 1140.390625 145.082031 1138.75 C 145.082031 1136.011719 172.519531 1106.441406 351.324219 916.539062 C 384.0625 881.769531 412.636719 853.328125 414.828125 853.328125 C 419.136719 853.328125 684.882812 1134.039062 684.882812 1138.589844 C 684.882812 1140.109375 630.675781 1198.671875 564.425781 1268.730469 C 498.171875 1338.78125 438.539062 1402.359375 431.90625 1410.011719 C 425.277344 1417.660156 417.683594 1423.921875 415.035156 1423.921875 C 412.386719 1423.921875 403.140625 1416.070312 394.488281 1406.46875 Z M 484.835938 1202.179688 C 516.15625 1168.621094 541.78125 1139.78125 541.78125 1138.089844 C 541.78125 1133.359375 419.199219 1003.679688 414.726562 1003.679688 C 411.214844 1003.679688 289.542969 1131.160156 287.242188 1137.261719 C 286.71875 1138.628906 315.046875 1170.339844 350.183594 1207.730469 C 411.835938 1273.320312 414.308594 1275.480469 420.976562 1269.441406 C 424.777344 1266.011719 453.515625 1235.738281 484.835938 1202.179688 Z M 0.394531 590.070312 L 0.613281 520.03125 L 68.898438 456.621094 C 106.453125 421.761719 137.324219 391.320312 137.503906 388.988281 C 137.683594 386.660156 106.855469 355.789062 68.996094 320.390625 L 0.160156 256.019531 L 0.160156 185.851562 C 0.160156 118.320312 0.410156 115.851562 6.847656 120.398438 C 10.527344 123.011719 67.996094 176.570312 134.554688 239.429688 C 201.113281 302.289062 263.316406 360.78125 272.78125 369.410156 C 282.242188 378.03125 289.988281 386.320312 289.988281 387.808594 C 289.988281 390.769531 8.558594 656.921875 3.335938 658.898438 C 1.582031 659.570312 0.261719 628.800781 0.386719 590.070312 Z M 1106.171875 606.050781 C 1074.710938 576.289062 1010.671875 515.730469 963.84375 471.488281 C 917.015625 427.238281 878.707031 389.800781 878.707031 388.28125 C 878.707031 385.820312 984.628906 284.808594 1117.769531 160.289062 L 1164.820312 116.289062 L 1177.539062 128.351562 C 1184.539062 134.980469 1248.960938 195.558594 1320.691406 262.960938 C 1392.421875 330.359375 1451.589844 386.640625 1452.179688 388.039062 C 1452.769531 389.429688 1446.910156 396.058594 1439.160156 402.769531 C 1431.410156 409.480469 1368.960938 467.949219 1300.378906 532.710938 C 1231.800781 597.460938 1172.910156 652.640625 1169.53125 655.308594 C 1164.050781 659.628906 1156.988281 654.140625 1106.171875 606.050781 Z M 1250.949219 437.171875 C 1278.351562 411.378906 1300.769531 389.230469 1300.769531 387.960938 C 1300.769531 383.710938 1169.410156 262.808594 1164.789062 262.808594 C 1160.019531 262.808594 1029.058594 383.800781 1029.058594 388.199219 C 1029.058594 389.589844 1059.539062 419.328125 1096.800781 454.289062 L 1164.539062 517.859375 L 1182.839844 500.960938 C 1192.898438 491.671875 1223.558594 462.96875 1250.949219 437.171875 Z M 2520.078125 524.941406 C 2441.199219 450.648438 2377.089844 388.769531 2377.609375 387.429688 C 2378.128906 386.078125 2396.621094 368.089844 2418.699219 347.441406 C 2440.769531 326.800781 2498.640625 272.429688 2547.308594 226.621094 C 2595.96875 180.808594 2642.289062 137.261719 2650.261719 129.828125 L 2664.738281 116.328125 L 2679.238281 130.089844 C 2687.21875 137.660156 2750.808594 197.449219 2820.539062 262.949219 C 2890.28125 328.460938 2948.429688 383.78125 2949.769531 385.890625 C 2951.78125 389.070312 2691.429688 639.839844 2670.128906 655.238281 C 2664.128906 659.570312 2649.921875 647.238281 2520.078125 524.941406 Z M 2745.371094 442.25 C 2775.75 413.671875 2800.621094 389.25 2800.621094 387.980469 C 2800.621094 385.230469 2670.898438 263.371094 2666.050781 261.558594 C 2664.21875 260.871094 2642.160156 279.621094 2617.039062 303.21875 C 2591.910156 326.820312 2561.808594 354.859375 2550.128906 365.519531 C 2538.460938 376.191406 2528.910156 386.21875 2528.910156 387.820312 C 2528.910156 389.421875 2559.441406 419.371094 2596.761719 454.390625 L 2664.609375 518.058594 L 2677.371094 506.128906 C 2684.378906 499.570312 2714.980469 470.820312 2745.371094 442.25 Z M 298.808594 142.351562 C 235.496094 75.101562 179.59375 15.589844 174.578125 10.109375 L 165.460938 0.148438 L 307.21875 0.148438 L 359 55.398438 C 387.476562 85.78125 412.539062 110.929688 414.691406 111.269531 C 416.84375 111.621094 442.101562 86.761719 470.816406 56.03125 L 523.027344 0.148438 L 663.988281 0.148438 L 650.136719 15.550781 C 627.542969 40.660156 416.0625 264.621094 414.945312 264.621094 C 414.386719 264.621094 362.121094 209.589844 298.808594 142.351562 Z M 1798.660156 142.351562 C 1735.351562 75.101562 1679.441406 15.589844 1674.429688 10.109375 L 1665.320312 0.148438 L 1807.039062 0.148438 L 1858.691406 55.398438 C 1887.109375 85.78125 1912.179688 110.640625 1914.410156 110.640625 C 1916.628906 110.640625 1941.929688 85.78125 1970.628906 55.398438 L 2022.789062 0.148438 L 2163.839844 0.148438 L 2149.988281 15.550781 C 2127.390625 40.660156 1915.921875 264.621094 1914.800781 264.621094 C 1914.238281 264.621094 1861.96875 209.589844 1798.660156 142.351562 Z M 2864.359375 127.828125 L 2730.660156 1.960938 L 2881.160156 0 L 2912.441406 30.238281 C 2929.640625 46.871094 2956.179688 71.761719 2971.421875 85.558594 L 2999.121094 110.640625 L 2999.488281 182.191406 C 2999.699219 221.550781 2999.488281 253.738281 2998.960938 253.71875 C 2998.460938 253.710938 2937.878906 197.058594 2864.351562 127.828125 Z M 2864.359375 127.828125 "/>
</svg>
