<svg width="250" height="250" viewBox="0 0 250 250" fill="none" xmlns="http://www.w3.org/2000/svg">
<path fill-rule="evenodd" clip-rule="evenodd" d="M0 0H250V250H0V0ZM21 21H91C104.13 21 116.078 26.0612 125 34.3391C133.922 26.0612 145.87 21 159 21H229V91C229 104.13 223.939 116.078 215.661 125C223.939 133.922 229 145.87 229 159V229H159C145.87 229 133.922 223.939 125 215.661C116.078 223.939 104.13 229 91 229H21V159C21 145.87 26.0612 133.922 34.3391 125C26.0612 116.078 21 104.13 21 91V21Z" fill="black"/>
</svg>
