<svg width="387" height="105" viewBox="0 0 387 105" fill="none" xmlns="http://www.w3.org/2000/svg">
<path d="M240.894 0.549149L252.698 38.7457H290.894L259.993 62.3525L271.796 100.549L240.894 76.9423L209.993 100.549L221.796 62.3525L190.894 38.7457H229.091L240.894 0.549149Z" fill="black"/>
<path d="M337 4.2L348.226 38.7491H384.553L355.164 60.1017L366.389 94.6508L337 73.2983L307.611 94.6508L318.836 60.1017L289.447 38.7491H325.774L337 4.2Z" fill="black"/>
<path d="M50 0.5L61.8034 38.6966H100L69.0983 62.3034L80.9017 100.5L50 76.8932L19.0983 100.5L30.9017 62.3034L0 38.6966H38.1966L50 0.5Z" fill="black"/>
<path d="M146.106 4.15085L157.331 38.7H193.658L164.269 60.0525L175.495 94.6017L146.106 73.2491L116.716 94.6017L127.942 60.0525L98.5528 38.7H134.88L146.106 4.15085Z" fill="black"/>
</svg>
